<?xml version="1.0" encoding="utf-8"?>
<!-- Generator: Adobe Illustrator 26.2.1, SVG Export Plug-In . SVG Version: 6.00 Build 0)  -->
<svg version="1.1" id="Warstwa_1" xmlns="http://www.w3.org/2000/svg" xmlns:xlink="http://www.w3.org/1999/xlink" x="0px" y="0px"
	 viewBox="0 0 45 45" style="enable-background:new 0 0 45 45;" xml:space="preserve">
<style type="text/css">
	.st0{opacity:0.7;}
	.st1{fill:#E30D13;}
	.st2{fill:none;stroke:#E30D13;stroke-width:0;}
</style>
<g class="st0">
	<g>
		<path class="st1" d="M43.6,12.9c-0.3-1-0.7-1.9-1.2-2.8c-0.5-0.9-1-1.7-1.5-2.6c-0.2-0.4-0.5-0.8-0.8-1.2
			c-0.2-0.2-0.3-0.4-0.5-0.6c-0.2-0.2-0.4-0.3-0.6-0.5c-0.3-0.2-0.6-0.4-0.8-0.6l-0.4-0.3L37.3,4c-0.5-0.4-1-0.8-1.6-1.2
			c-0.6-0.4-1.1-0.7-1.7-1.1c-0.6-0.3-1.2-0.6-1.9-0.8c-2.5-0.7-5.1-1-7.6-1c-2.6,0.1-5.1,0.4-7.5,1.1c-2.3,0.6-4.5,1.6-6.4,2.9
			c-2,1.3-3.6,2.9-5.1,4.6C5,9,4.7,9.5,4.3,9.9l-0.9,1.4c-0.3,0.5-0.5,1-0.8,1.5c-0.1,0.3-0.3,0.5-0.4,0.8l-0.3,0.8
			c-0.5,1.1-0.8,2.2-1.1,3.3c-0.1,0.6-0.2,1.2-0.4,1.7l-0.1,0.4c0,0.1,0,0.3-0.1,0.4l-0.1,0.9C-0.2,24,0.1,27.1,1.1,30
			c1,2.9,2.7,5.7,4.8,7.9c0.2,0.2,0.4,0.4,0.6,0.6c0.2,0.2,0.4,0.5,0.7,0.7c0.5,0.4,1.1,0.9,1.7,1.4c0.6,0.4,1.3,0.9,2,1.4
			c0.4,0.2,0.7,0.4,1.1,0.6c0.4,0.2,0.7,0.4,1.1,0.6c3,1.4,6.3,2.1,8.2,1.8c-2.5-0.1-5.1-0.8-7.5-1.9c-2.3-1.1-4.4-2.7-6.1-4.4
			c4,3.6,9.4,5.7,14.8,5.9c5.4,0.2,10.9-1.6,14.8-4.9c-1.9,1.5-4,2.7-6.3,3.5c-2.3,0.8-4.7,1.2-7.2,1.2l-1.8,0l-1.8-0.2L19.7,44
			l-0.4-0.1l-0.9-0.2l-0.9-0.2c-0.3-0.1-0.6-0.2-0.9-0.3l-0.9-0.3l-0.4-0.2l-0.4-0.2l-1.6-0.8l-1.5-0.9l-0.4-0.2L11,40.3l-0.7-0.5
			c-0.2-0.2-0.5-0.4-0.7-0.5L9,38.7c-0.4-0.4-0.9-0.8-1.2-1.2C7.4,37,7,36.6,6.6,36.1l-1-1.4c-1.2-1.9-2.1-4-2.6-6.1
			c-0.5-2.1-0.6-4.3-0.4-6.3c0.3-2.1,0.8-4,1.6-5.8c-0.8,2.1-1.1,4.5-1.1,6.9c0,2.4,0.6,5,1.6,7.4c1,2.4,2.6,4.7,4.6,6.6
			c2,1.9,4.4,3.5,7.1,4.5c5.3,2.1,11.5,1.8,16.5-0.6c2.5-1.2,4.6-2.8,6.3-4.7c1.6-2,2.8-4.1,3.7-6.2c0.1-0.3,0.3-0.6,0.4-1
			c0.2-0.3,0.2-0.7,0.4-1c0.1-0.3,0.2-0.7,0.3-1c0.1-0.3,0.2-0.6,0.3-0.9c-0.7,2.2-1.6,4.3-2.8,6.5c-0.3,0.5-0.7,1-1,1.6
			c-0.4,0.5-0.8,1-1.1,1.5c-0.4,0.5-0.9,0.9-1.3,1.4c-0.5,0.4-1,0.9-1.5,1.3c-2.1,1.6-4.6,2.9-7.2,3.5c-2.7,0.7-5.5,0.8-8.3,0.4
			c-2.8-0.4-5.4-1.4-7.7-2.8C11,38.5,9,36.6,7.5,34.5c-3-4.2-4.2-9.3-3.5-13.8c0.3-2.1,0.9-4,1.7-5.9c0.9-1.8,2.1-3.5,3.5-5l0.5-0.5
			c0.2-0.2,0.3-0.4,0.5-0.5l1.2-1l1.2-0.9c0.2-0.2,0.4-0.3,0.6-0.4l0.7-0.4c1.8-1,3.7-1.7,5.6-2.2c2.2-0.4,4.4-0.4,6.6-0.1
			c2.2,0.3,4.4,1,6.4,2.1c1,0.5,2,1.1,2.8,1.8c0.2,0.2,0.4,0.4,0.6,0.6c0.2,0.2,0.5,0.3,0.7,0.5c0.5,0.3,0.9,0.6,1.4,1
			c0.4,0.3,0.9,0.7,1.4,1c0.5,0.4,1,0.9,1.5,1.3c0.5,0.5,0.9,1,1.4,1.6c0.4,0.6,0.8,1.2,1.2,1.8c0.3,0.6,0.6,1.2,0.8,1.8
			c0.2,0.6,0.3,1.2,0.5,1.7c0.2,1,0.2,1.9,0.2,2.3c-0.1-0.7-0.1-1.5-0.2-2.2c-0.2-0.7-0.3-1.5-0.5-2.1c0.2,0.5,0.3,1.1,0.4,1.7
			c-0.1-0.6-0.2-1.2-0.4-1.7c0.2,0.4,0.2,0.9,0.3,1.1c-0.1-0.3-0.1-0.8-0.3-1.2c-0.1-0.4-0.3-0.8-0.3-1c-0.1-0.2-0.2-0.6-0.4-1
			c-0.2-0.4-0.5-0.8-0.5-1c0.3,0.5,0.6,1,0.8,1.6c0.2,0.6,0.4,1.1,0.5,1.6c-0.1-0.4-0.2-0.7-0.3-1.1c0.1,0.4,0.4,1.3,0.4,1.6
			c-0.1-0.5-0.2-0.9-0.3-1.4c-0.1-0.4-0.2-0.9-0.4-1.4c-0.3-0.8-0.5-1.5-0.9-2.2c0.1,0.2,0.2,0.4,0.4,0.7c0.1,0.2,0.2,0.5,0.3,0.7
			c0.2,0.5,0.4,0.9,0.5,1.2c-0.1-0.4-0.2-0.9-0.4-1.3c0,0,0,0.1,0.1,0.1c-0.1-0.2-0.1-0.4-0.2-0.7c0,0,0-0.1,0,0c0,0,0,0,0,0"/>
		<path class="st1" d="M43.1,14.6c-0.1-0.2-0.3-0.4-0.4-0.7c-0.1-0.2-0.3-0.5-0.5-0.7c-0.3-0.4-0.7-0.9-0.9-1.2"/>
		<path class="st2" d="M3.4,21.6c0,0,0,0.2,0,0.5c0,0.4,0,0.9,0.1,1.6c0,0.2,0,0.4,0,0.5c0,0.2,0.1,0.4,0.1,0.6
			c0.1,0.4,0.1,0.9,0.2,1.3c0.2,0.9,0.5,2,0.9,3.1c0.9,2.3,2.4,4.8,4.7,7.1c1.2,1.1,2.5,2.2,4,3l0.6,0.3l0.3,0.2l0.3,0.1
			c0.4,0.2,0.8,0.4,1.2,0.5l0.3,0.1l0.3,0.1l0.6,0.2l0.6,0.2l0.3,0.1l0.3,0.1c3.6,0.9,7.5,0.9,11.1-0.2c1.8-0.5,3.5-1.3,5-2.3
			c0.4-0.3,0.7-0.5,1.1-0.8c0.4-0.2,0.7-0.6,1-0.8c0.7-0.5,1.2-1.2,1.8-1.8c0.3-0.3,0.5-0.6,0.8-0.9c0.3-0.3,0.6-0.6,0.8-0.9
			c0.2-0.3,0.5-0.6,0.7-1c0.1-0.2,0.2-0.3,0.4-0.5c0.1-0.2,0.2-0.3,0.3-0.5c0.2-0.3,0.4-0.6,0.6-1c0.2-0.3,0.4-0.7,0.5-1
			c0.2-0.3,0.4-0.6,0.5-0.9c0.1-0.3,0.3-0.6,0.4-1c0.1-0.3,0.3-0.6,0.4-0.9c0.1-0.3,0.2-0.6,0.3-0.9c0.1-0.3,0.2-0.6,0.3-0.9
			c0.1-0.3,0.1-0.6,0.2-0.9c0.3-1.2,0.3-2.2,0.3-3.2"/>
	</g>
	<path class="st2" d="M13.5,41c0,0,0.1,0,0.2,0.1c0.1,0.1,0.3,0.2,0.6,0.3c0.3,0.1,0.6,0.3,1,0.5c0.4,0.2,0.9,0.3,1.4,0.5
		c2.1,0.7,5.2,1.4,8.8,1c1.8-0.1,3.7-0.6,5.5-1.3c1.8-0.7,3.6-1.7,5.2-3c0.4-0.3,0.8-0.7,1.1-1c0.2-0.2,0.4-0.3,0.6-0.5l0.5-0.6
		l0.5-0.6c0.2-0.2,0.3-0.4,0.5-0.6l0.9-1.2c0.3-0.4,0.5-0.9,0.8-1.3l0.4-0.6l0.3-0.6c0.2-0.4,0.5-0.8,0.7-1.3
		c0.2-0.4,0.4-0.9,0.6-1.3"/>
</g>
</svg>
