<?xml version="1.0" encoding="utf-8"?>
<!-- Generator: Adobe Illustrator 26.2.1, SVG Export Plug-In . SVG Version: 6.00 Build 0)  -->
<svg version="1.1" id="Warstwa_1" xmlns="http://www.w3.org/2000/svg" xmlns:xlink="http://www.w3.org/1999/xlink" x="0px" y="0px"
	 viewBox="0 0 296 115.1" style="enable-background:new 0 0 296 115.1;" xml:space="preserve">
<style type="text/css">
	.st0{fill:#26292B;}
	.st1{fill:#25282A;}
</style>
<g>
	<path class="st0" d="M296,0c0,25.9,0,51.9,0,77.8c0,0.6-0.1,0.8-0.7,0.8c-83.6,0-167.3,0-250.9,0c-0.6,0-0.8-0.1-0.8-0.8
		c0-1.6,0-3.2,0-4.8c0-0.5,0.1-0.8,0.6-0.7c0.2,0,0.4,0,0.5,0c81.4,0,162.8,0,244.3,0c0.8,0,0.8,0,0.8-0.8c0-21.5,0-43.1,0-64.7
		c0-0.6-0.1-0.8-0.8-0.8c-94,0-188.1,0-282.1,0c-0.6,0-0.8,0.1-0.8,0.7c0,21.6,0,43.2,0,64.8c0,0.5,0.1,0.7,0.7,0.7
		c1.6,0,3.3,0,4.9,0c0.4,0,0.6,0.1,0.6,0.6c0,1.7,0,3.4,0,5c0,0.5-0.1,0.6-0.6,0.6c-3.7,0-7.4,0-11.1,0c-0.2,0-0.4,0-0.6,0
		c0-26,0-52,0-78C0.1,0.1,0.2,0,0.6,0C99.1,0,197.5,0,296,0z"/>
	<path class="st0" d="M271.1,115.1c-0.4-0.2-0.9-0.2-1.4-0.3c-3.5-0.7-5.5-2.8-6.1-6.4c-0.4-2.2-0.4-4.3,0.3-6.5
		c0.9-3,3-4.8,6.1-5.3c2.3-0.4,4.5-0.2,6.8-0.2c0.3,0,0.4,0.1,0.4,0.4c0,0.6,0.2,1.3-0.1,1.7c-0.3,0.4-1.1,0.1-1.7,0.1
		c-1.7,0.1-3.4-0.1-5.1,0.2c-2.2,0.5-3.6,1.7-4,3.9c-0.3,2.1-0.5,4.2,0.1,6.2c0.6,2.3,1.8,3.3,4.2,3.7c2,0.3,4,0.1,5.9,0.1
		c1,0,1,0,1,0.9c0,0.4,0,0.9,0,1.3C275.4,115.1,273.3,115.1,271.1,115.1z"/>
	<path class="st0" d="M228.4,115.1c0-2,0-4,0-6c0-0.5-0.1-1-0.4-1.4c-2-3.5-4.1-7.1-6.1-10.7c-0.1-0.2-0.3-0.3-0.3-0.6
		c0.8,0,1.6,0,2.4,0c0.3,0,0.4,0.2,0.5,0.4c1.3,2.3,2.6,4.7,3.9,7c0.2,0.4,0.4,0.8,0.9,0.8c0.6,0.1,0.9-0.3,1.2-0.8
		c1.3-2.3,2.6-4.6,3.9-6.9c0.2-0.5,0.5-0.6,1-0.6c0.6,0.1,1.2,0,1.9,0c0,0.3-0.1,0.4-0.3,0.6c-2,3.5-4,7-6,10.4
		c-0.2,0.4-0.4,0.8-0.4,1.3c0,2.1,0,4.2,0,6.3C230.1,115.1,229.3,115.1,228.4,115.1z"/>
	<path class="st0" d="M204.8,115.1c0-5,0-10,0-14.9c0-1.2-0.3-1.5-1.5-1.5c-1.1,0-2.2,0-3.3,0c-0.3,0-0.5-0.1-0.6-0.4
		c-0.2-0.5-0.4-0.9-0.6-1.4c-0.2-0.4-0.1-0.5,0.3-0.5c1.8,0,3.6,0,5.4,0c2.9,0,5.7,0,8.6,0c0.1,0,0.2,0,0.4,0
		c-0.3,0.7-0.5,1.3-0.8,2c-0.1,0.3-0.3,0.2-0.6,0.2c-1.1,0-2.3,0-3.4,0c-1,0-1.4,0.4-1.4,1.4c0,5,0,10,0,15.1
		C206.5,115.1,205.6,115.1,204.8,115.1z"/>
	<path class="st0" d="M246.4,115.1c-0.7-0.3-0.9-0.8-0.9-1.6c0-5.5,0-11,0-16.5c0-0.5,0.1-0.7,0.7-0.6c0.4,0.1,0.9,0,1.4,0
		c0.4,0,0.5,0.1,0.5,0.5c0,4.8,0,9.5,0,14.3c0,1.4,0.3,1.7,1.6,1.7c2.3,0,4.6,0,7,0c-0.3,0.8-0.6,1.5-0.9,2.3
		C252.7,115.1,249.6,115.1,246.4,115.1z"/>
	<path class="st0" d="M97.1,34.2c1.3-1.3,2.6-2.4,4.1-3.2c3.6-2.1,7.4-2.9,11.5-2.1c3.4,0.7,5.4,2.8,6.4,6c0.7,2.2,0.9,4.5,0.9,6.7
		c0,7.6,0,15.2,0,22.8c0,0.5-0.2,0.6-0.6,0.6c-2.5,0-5,0-7.6,0c-0.5,0-0.6-0.1-0.6-0.6c0-6.2,0-12.4,0-18.6c0-2.2-0.1-4.3-0.6-6.4
		c-0.5-2.3-2.2-3.3-4.4-3.2c-2.1,0.1-3.8,1-5.5,2.2c-1.1,0.8-2.2,1.6-3.2,2.5c-0.3,0.3-0.5,0.6-0.5,1.1c0,7.5,0,15,0,22.4
		c0,0.6-0.1,0.7-0.7,0.7c-2.5,0-5,0-7.6,0c-0.4,0-0.5-0.1-0.5-0.5c0-16.5,0-32.9,0-49.4c0-0.5,0.1-0.6,0.6-0.6c2.5,0,5.1,0,7.6,0
		c0.5,0,0.6,0.2,0.6,0.6c0,6,0,12.1,0,18.1C97.1,33.6,97.1,33.8,97.1,34.2z"/>
	<path class="st1" d="M63.2,28.6c3,0.1,5.9,0.4,8.6,1.6c2.9,1.3,5,3.5,6.4,6.3c2,4.2,2.4,8.6,2.1,13.2c-0.2,2.9-0.7,5.8-2,8.4
		c-1.9,4-5.1,6.5-9.4,7.5c-3.6,0.8-7.3,0.8-10.9,0c-4.9-1.1-8.3-4-10.1-8.8C46.3,53,46.1,49,46.3,45c0.1-2.2,0.5-4.4,1.2-6.5
		c1.8-5.2,5.4-8.4,10.8-9.5C60,28.7,61.7,28.6,63.2,28.6z M71.3,47.6c0-2.1-0.1-4.1-0.7-6c-0.6-2.3-1.9-4.1-4.3-4.9
		c-1.3-0.4-2.5-0.5-3.8-0.4c-3.1,0.1-5.2,1.8-6.3,4.6c-0.6,1.6-0.8,3.2-0.9,4.9c-0.1,2.5-0.1,5.1,0.7,7.5c0.6,2.1,1.7,3.8,3.8,4.6
		c1.4,0.6,2.9,0.7,4.4,0.6c3.5-0.2,5.6-2,6.5-5.4C71.1,51.3,71.2,49.4,71.3,47.6z"/>
	<path class="st1" d="M203.7,47.5c0-3,0.3-6,1.3-8.9c1.8-5.1,5.2-8.4,10.6-9.4c4.1-0.8,8.2-0.8,12.2,0.5c3.6,1.1,6.2,3.5,7.8,6.9
		c1.7,3.5,2.2,7.2,2.2,11.1c0,3-0.3,5.9-1.3,8.7c-1.8,5.2-5.4,8.5-10.8,9.5c-4,0.7-7.9,0.7-11.8-0.6c-4.1-1.3-6.9-4.1-8.5-8.1
		C204.1,54,203.8,50.7,203.7,47.5z M228.8,47.5c0-2.1-0.1-4.1-0.7-6c-0.6-2.3-1.9-4.1-4.2-4.9c-1.3-0.4-2.6-0.5-4-0.4
		c-3.1,0.2-5.2,1.8-6.2,4.7c-0.4,1.2-0.7,2.3-0.8,3.6c-0.3,3-0.3,5.9,0.5,8.8c0.7,2.3,2,4.1,4.4,4.9c1.2,0.4,2.5,0.5,3.8,0.4
		c3.5-0.3,5.5-2,6.5-5.4C228.6,51.3,228.7,49.4,228.8,47.5z"/>
	<path class="st1" d="M254.6,34.2c1.3-1.3,2.7-2.4,4.1-3.3c3.6-2.1,7.4-2.9,11.4-2c3.8,0.8,5.9,3.3,6.8,7c0.4,1.9,0.6,3.8,0.6,5.7
		c0,7.7,0,15.3,0,23c0,0.5-0.1,0.6-0.6,0.6c-2.5,0-5.1,0-7.6,0c-0.5,0-0.6-0.1-0.5-0.6c0-6.2,0-12.5,0-18.7c0-2.1-0.1-4.1-0.5-6.1
		c-0.5-2.3-1.8-3.6-4.6-3.4c-2.5,0.1-4.6,1.5-6.5,3c-0.8,0.6-1.4,1.2-2.2,1.8c-0.3,0.2-0.4,0.5-0.4,0.9c0,7.5,0,15,0,22.5
		c0,0.5-0.1,0.7-0.7,0.7c-2.5,0-5,0-7.6,0c-0.5,0-0.6-0.1-0.6-0.6c0-11.5,0-22.9,0-34.4c0-0.4,0.1-0.6,0.5-0.6c2.6,0,5.1,0,7.7,0
		c0.5,0,0.6,0.1,0.6,0.6C254.6,31.5,254.6,32.8,254.6,34.2z"/>
	<path class="st1" d="M138.3,34.2c1.4-1.3,2.6-2.4,4.1-3.2c3.9-2.3,8-3.1,12.4-1.8c2.7,0.8,4.5,2.6,5.4,5.3c0.8,2.3,1,4.7,1,7.1
		c0,7.7,0,15.3,0,23c0,0.4,0,0.6-0.5,0.6c-2.6,0-5.1,0-7.7,0c-0.5,0-0.5-0.2-0.5-0.6c0-6.2,0-12.3,0-18.5c0-1.8,0-3.6-0.3-5.3
		c-0.1-0.5-0.2-1-0.3-1.5c-0.5-2.1-2.2-3.2-4.4-3c-2.6,0.2-4.7,1.5-6.7,3c-0.6,0.5-1.2,1.1-1.9,1.6c-0.4,0.3-0.6,0.7-0.6,1.3
		c0,7.5,0,14.9,0,22.4c0,0.5-0.1,0.6-0.6,0.6c-2.5,0-5,0-7.6,0c-0.4,0-0.6-0.1-0.6-0.5c0-11.5,0-23,0-34.5c0-0.4,0.1-0.5,0.5-0.5
		c2.6,0,5.2,0,7.7,0c0.4,0,0.5,0.1,0.5,0.5C138.3,31.4,138.3,32.8,138.3,34.2z"/>
	<path class="st0" d="M183.3,66.2c-2.9,0-5.7-0.3-8.4-1.3c-2.5-0.9-4.6-2.3-6.2-4.5c-0.2-0.3-0.2-0.5,0.1-0.7c1.9-1.3,3.8-2.7,5.7-4
		c0.3-0.2,0.4-0.3,0.7,0.1c1.8,2.4,4.3,3.1,7.1,3.3c1.8,0.1,3.6,0,5.2-0.8c1.6-0.8,2.2-2.6,1.4-4c-0.4-0.7-1-1.1-1.7-1.4
		c-2.1-0.9-4.3-1.4-6.5-2c-2.6-0.7-5.2-1.5-7.4-3.1c-3.3-2.4-4.4-5.7-4-9.6c0.4-4.4,3.8-7.8,8.2-8.9c4.7-1.2,9.4-1,14,0.7
		c2.3,0.9,4.2,2.3,5.6,4.3c0.2,0.3,0.2,0.5-0.1,0.7c-1.9,1.3-3.9,2.7-5.8,4.1c-0.2,0.1-0.4,0.3-0.6,0c-1.9-2.6-4.6-3.3-7.6-3.3
		c-1.3,0-2.5,0.1-3.6,0.8c-1,0.5-1.7,1.3-1.7,2.6c0,1.2,0.7,1.9,1.7,2.4c1.6,0.8,3.4,1.2,5.2,1.7c2.6,0.7,5.2,1.4,7.6,2.6
		c3.8,1.9,5.8,5.4,5.6,9.6c-0.1,2.5-0.8,4.7-2.6,6.6c-1.2,1.3-2.7,2.2-4.3,2.9C188.5,65.9,185.9,66.2,183.3,66.2z"/>
	<path class="st1" d="M38.2,49.1c0,5.8,0,11.5,0,17.3c0,2-0.2,4.1-0.8,6c-1,2.9-3,4.7-5.9,5.5c-2.8,0.8-5.6,0.8-8.5,0.4
		c-1.3-0.2-2.6-0.4-4-0.7c-0.4-0.1-0.4-0.2-0.4-0.6c0.6-2.2,1.1-4.5,1.7-6.7c0.1-0.4,0.3-0.4,0.6-0.3c1.9,0.7,3.7,1,5.7,0.7
		c1.3-0.2,2-0.8,2.4-2c0.4-1.2,0.5-2.4,0.5-3.7c0-11.6,0-23.2,0-34.8c0-0.6,0.1-0.8,0.7-0.7c2.5,0,4.9,0,7.4,0
		c0.5,0,0.7,0.1,0.7,0.6C38.2,36.5,38.2,42.8,38.2,49.1z"/>
	<path class="st0" d="M179.9,115c-1.5,0-2.9,0-4.4,0c-0.4,0-0.6-0.1-0.5-0.5c0.1-0.6-0.2-1.3,0.1-1.6c0.3-0.3,1-0.1,1.6-0.1
		c2.3,0,4.5,0,6.8,0c0.7,0,1.4-0.1,2-0.3c0.8-0.3,1.4-0.9,1.5-1.8c0.1-0.8,0.1-1.6-0.1-2.4c-0.3-0.9-1-1.3-1.9-1.5
		c-1.4-0.2-2.9-0.1-4.4-0.1c-1.1,0-2.2-0.1-3.3-0.6c-1.6-0.7-2.4-1.9-2.6-3.6c-0.1-0.8-0.1-1.5,0.1-2.3c0.4-2.2,1.9-3.2,3.9-3.6
		c0.8-0.2,1.7-0.2,2.5-0.2c2.3,0,4.6,0,6.8,0c0.4,0,0.6,0.1,0.5,0.5c0,0.4,0,0.8,0,1.3c0,0.4-0.1,0.5-0.5,0.5c-2.3,0-4.7,0-7,0
		c-0.3,0-0.7,0-1,0c-2,0.1-2.9,1.1-2.8,3.1c0.1,1.8,0.8,2.6,2.6,2.7c1.7,0.1,3.4,0.1,5.1,0.1c0.9,0,1.8,0.3,2.6,0.8
		c1.8,1,2.1,2.7,2.1,4.5c0,3.3-2.1,4.8-5.1,5.1C183,115,181.4,114.9,179.9,115C179.9,114.9,179.9,114.9,179.9,115z"/>
	<path class="st0" d="M33.8,15.5c0.8,0,1.7,0.1,2.5,0.3c1.2,0.4,1.9,1.2,2.2,2.4c0.3,1.2,0.2,2.4-0.1,3.6c-0.3,1-0.9,1.7-1.9,2
		c-1.7,0.6-3.4,0.6-5.1,0.2c-1.1-0.3-1.9-1.1-2.2-2.2c-0.4-1.4-0.4-2.8,0-4.1c0.5-1.7,2-2.1,3.5-2.3C33.1,15.5,33.5,15.5,33.8,15.5z
		"/>
	<path class="st0" d="M272.8,106.5c-1,0-2,0-3,0c-0.3,0-0.4-0.1-0.5-0.4c0-1.7-0.1-1.7,1.6-1.7c1.7,0,3.4,0,5,0
		c0.4,0,0.5,0.1,0.5,0.5c0,1.6,0,1.6-1.6,1.6C274.1,106.5,273.4,106.5,272.8,106.5z"/>
</g>
</svg>
