<?xml version="1.0" encoding="utf-8"?>
<!-- Generator: Adobe Illustrator 26.2.1, SVG Export Plug-In . SVG Version: 6.00 Build 0)  -->
<svg version="1.1" id="Warstwa_1" xmlns="http://www.w3.org/2000/svg" xmlns:xlink="http://www.w3.org/1999/xlink" x="0px" y="0px"
	 viewBox="0 0 578.9 214.8" style="enable-background:new 0 0 578.9 214.8;" xml:space="preserve">
<style type="text/css">
	.st0{opacity:0.7;}
	.st1{fill:#C8B0A5;}
	.st2{fill:none;}
	.st3{fill:#FFFFFF;}
	.st4{fill:#C1A69A;}
</style>
<g id="Warstwa_1_00000080169634504309576170000005416402674017259946_">
</g>
<g id="Warstwa_3">
</g>
<g id="Warstwa_2_00000113328589106333716060000016984308472565474197_">
	<g>
		<g>
			<g>
				<g>
					<g class="st0">
						<g>
							<g>
								<path class="st1" d="M358.3,217.8c7.1,0.1,14.4,0,21.2-0.2c14.5-0.4,26.7,1.1,40.9,0.5c17.8-0.7,35.3,0.6,53.8,0.2
									c17-0.4,34.2-0.9,51.5-1.2c4.2,0,8.9-0.2,13.4-1.2c4.5-1,8.7-2.8,12.6-5.1c7.9-4.6,14-11.8,17.7-20.1
									c1.7-3.9,2.7-8.1,3.3-12.3c0.4-4.3,0.3-8.2,0.4-12.2c0.1-7.9,0.2-15.8,0.3-23.6c0.2-15.6,0.4-31,0.5-46.3
									c0.1-7.7,0.2-15.3,0.3-22.9l0.2-11.5c0-0.5,0-0.9,0-1.5l0-1.6c-0.1-1,0-2.1-0.2-3.1c-0.3-2.1-0.5-4.2-1.1-6.2
									c-0.4-2.1-1.2-4-1.9-6c-0.4-1-0.9-1.9-1.3-2.9c-0.4-1-1-1.9-1.5-2.8l-0.8-1.4l-0.4-0.7l-0.5-0.7l-1.9-2.6
									c-0.7-0.8-1.4-1.6-2.1-2.4c-0.4-0.4-0.7-0.8-1.1-1.2l-1.2-1.1c-0.8-0.7-1.5-1.5-2.4-2.2l-2.5-2c-0.9-0.6-1.8-1.2-2.7-1.8
									c-0.5-0.3-0.9-0.6-1.4-0.9l-1.5-0.8c-3.8-2.1-8-3.5-12.3-4.4l-1.9-0.3c-0.6-0.1-1.3-0.2-1.9-0.3c-1.3-0.1-2.6-0.2-3.9-0.3
									c-2.3-0.1-4.6-0.1-7-0.2c-4.7-0.1-9.4-0.2-14.2-0.4c-9.6-0.2-19.3-0.4-29.1-0.5c-19.6-0.3-39.4-0.4-58.5-0.3
									c-27.8,0.1-84.1-0.7-107.9,1c32-0.6,65.6,0,97,0.7c-34.5,0.2-69.6,0.3-104.7,0.5l-6.6,0l-1.7,0l-1.8,0.1
									c-1.2,0.1-2.4,0.1-3.6,0.3c-4.8,0.5-9.5,2.1-13.9,4.2c-4.3,2.1-8.4,4.9-11.7,8.4c-3.4,3.4-6.2,7.3-8.4,11.6
									c-2.2,4.2-3.6,8.9-4.2,13.6c-0.4,2.3-0.4,4.7-0.5,7c0,2.2,0.1,4.3,0.1,6.5c0.2,8.6,0.3,17.1,0.5,25.6
									c-0.1-7.9-0.2-15.9-0.4-23.8l-0.1-6c0-1-0.1-1.9,0-3l0.1-3.2c0-1.1,0.3-2.2,0.4-3.2l0.2-1.6c0.1-0.5,0.2-1.1,0.4-1.6
									c0.3-1,0.5-2.1,0.8-3.2l1.1-3.1c1.6-4,3.8-7.9,6.5-11.3c2.8-3.4,5.9-6.4,9.5-8.9c3.6-2.4,7.6-4.4,11.7-5.8
									c4.2-1.2,8.5-2,12.9-2.1c31.8-0.1,63.3,0.1,94.6,0.6c31.3,0.5,62.2,1.1,92.6,2.1c15.2,0.5,30.3,1,45.2,1.6
									c3.7,0.3,7.4,0.7,10.9,1.9l1.3,0.4l1.3,0.5c0.8,0.4,1.7,0.7,2.5,1.1c1.6,0.9,3.2,1.6,4.7,2.7c6,3.9,10.7,9.6,13.7,15.8
									c-3.7-7.2-9.7-13.5-17.4-17.2c-3.8-1.9-7.9-3.2-12.2-3.8c-4.2-0.5-8.8-0.4-13.4-0.5c-18.1-0.3-36.8-0.7-55.7-1
									c-37.9-0.7-77-1.3-116-1.6c-9.8-0.1-19.5-0.1-29.2-0.2c-4.9,0-9.7,0-14.6-0.1c-2.4,0-4.9,0-7.3,0c-2.5,0.1-5,0.1-7.5,0.6
									c-10,1.6-19.2,7-25.6,14.7c-3.2,3.9-5.6,8.3-7.2,12.9c-1.6,4.7-2.4,9.6-2.4,14.5c0.4,37.6,1.1,73.8,2.5,107.3
									c0.1,1.3,0.1,2.6,0.2,3.9c0,0.6,0.1,1.3,0.1,1.9l0.2,1.9l0.2,1.9c0.1,0.6,0.2,1.2,0.4,1.9c0.2,1.2,0.5,2.5,0.9,3.6
									c1.4,4.8,3.8,8.9,6.3,12c-2.3-3.1-4.2-6.6-5.6-10.4c-0.3-1-0.6-1.9-0.9-2.9c-0.2-1-0.4-2-0.6-3c-0.2-1-0.3-2-0.4-3.1
									c-0.1-1-0.2-2.1-0.2-3.1c-0.4-8.6-0.7-17.3-1-26.2c-0.6-17.7-1-35.9-1.2-54.4c-0.1-9.3-0.2-18.6-0.3-28l0-3.5l0.2-3.6
									c0-0.6,0.1-1.2,0.2-1.8l0.3-1.8c0.1-1.2,0.5-2.4,0.8-3.6c1.2-4.7,3.3-9.2,6.1-13.2c5.6-8.1,14.3-14,23.9-16.4l1.8-0.5
									l1.8-0.3c1.2-0.2,2.4-0.4,3.7-0.4c1.2,0,2.5-0.1,3.7-0.1l3.6,0c4.8,0,9.6,0.1,14.5,0.1c38.6,0.3,77.4,1,115.4,1.7
									c19,0.4,37.7,0.8,56,1.2c9.2,0.2,18.3,0.4,27.2,0.6c4.5,0.1,8.9,0.2,13.4,0.3l1.7,0l1.5,0.1c1,0.1,2,0.1,3.1,0.3
									c1,0.2,2,0.3,3,0.5c1,0.3,2,0.5,2.9,0.8c3.5,1.2,6.9,2.8,9.9,4.9c3,2.1,5.7,4.7,8,7.6c2.2,2.9,4,6.1,5.4,9.5
									c1.3,3.4,2,7,2.4,10.6l0.1,2.7c0,0.4,0,0.9,0,1.5l0,1.5l-0.1,6c-0.1,4-0.1,8.1-0.2,12.1c-0.1,8.1-0.2,16.2-0.4,24.2
									c-0.2,16.2-0.4,32.4-0.5,48.7c0,4.1,0,8.1-0.1,12.2l0,6.1l0,1.5c0,0.5,0,0.9-0.1,1.4c-0.1,0.9-0.1,1.8-0.2,2.6
									c-0.4,3.5-1.4,6.9-2.8,10.2c-1.4,3.3-3.4,6.2-5.7,8.9c-0.7,0.7-1.3,1.4-2,2.1l-2.2,1.9l-2.3,1.7c-0.8,0.6-1.7,1-2.5,1.5
									c-3.4,1.9-7,3.2-10.8,3.9l-2.8,0.4c-1,0.1-1.9,0.1-2.9,0.1c-0.9,0.1-2.1,0-3.2,0l-3.4,0c-4.5,0-9-0.1-13.4-0.1
									c-36.7-0.2-73.7-0.2-110.4,0.1c-32.6,0.3-90.6,0.4-103,4.2c10.4,0.1,22-0.3,32-0.1c-3.8,0.3-8.1,0.8-12.6,1
									c4.3,0,9,0.1,13-0.1c-3.3,0.2-6.7,0.4-7.9,0.8c5.1,0.1,12.4-0.5,16.5-0.7c2.4-0.1,13.3-1,16.4-0.9
									c-8.1,0.7-18.3,1.4-24.9,2.3c2.8,0,5.6,0,8.3,0.1c-3.4,0.3-9.9,0.5-11.6,0.9c7-0.1,13.1-0.3,20.3-0.3
									c5.8,0,11.1,0.1,16.7-0.1c-6.7,0.3-15.6,0.6-20.3,1.2c3.1,0.1,6.3,0.1,9.5,0c-0.4,0.1-0.6,0.1-0.7,0.2
									c1.4,0,3.3,0.1,4.7,0.1c0,0.1,0.4,0.2,0.1,0.3c0-0.1,0.1-0.1,0.1-0.2"/>
								<path class="st1" d="M348.5,210.6c6.9-0.1,16.7-0.1,23,0.1"/>
								<path class="st2" d="M534.2,22.4c0,0-0.3-0.1-1-0.1c-0.7,0-1.7-0.1-3-0.2c-2.7-0.1-6.7-0.1-11.9-0.2
									c-10.3-0.1-25.1-0.3-43.2-0.5c-36.3-0.3-85.7-0.6-138.6-0.7c-6.6,0-13.3,0-20,0c-3.4,0-6.7,0-10.1,0l-5,0l-2.5,0
									c-0.9,0-1.7,0-2.5,0.1c-13.3,0.3-26.2,7.9-32.8,19.4c-0.9,1.4-1.5,2.9-2.2,4.4c-0.4,0.7-0.6,1.5-0.9,2.3
									c-0.3,0.8-0.6,1.5-0.8,2.3l-0.6,2.4c-0.1,0.4-0.2,0.8-0.3,1.2l-0.2,1.2l-0.4,2.4c0,0.8-0.1,1.6-0.1,2.4
									c-0.1,1.6,0,3.3,0,4.9c0,1.7,0,3.3,0,5c0,3.3,0.1,6.6,0.1,9.9c0.2,13.1,0.4,26,0.6,38.5c0.2,12.5,0.5,24.5,0.8,36
									c0.2,5.8,0.3,11.4,0.5,16.8c0,1.4,0.1,2.7,0.1,4.1c0.1,1.2,0.2,2.5,0.3,3.7c0.2,1.2,0.5,2.4,0.7,3.5c0.3,1.1,0.7,2.3,1,3.4
									c1.5,4.4,3.9,8.3,6.6,11.5c2.8,3.2,6,5.7,9.3,7.6c6.7,3.7,13.6,4.6,19.2,4"/>
							</g>
							<path class="st2" d="M369.2,18c0,0-8.7-0.1-23.5-0.2c-7.4,0-16.3,0-26.4,0c-5,0-10.4,0-16,0c-2.8,0-5.6,0-8.8,0.2
								c-3.1,0.2-6.2,0.8-9.3,1.7c-6.1,1.8-12,5.3-16.9,10c-5,4.7-8.7,10.8-10.9,17.5c-0.3,0.8-0.5,1.7-0.7,2.6
								c-0.2,0.9-0.4,1.7-0.6,2.6c-0.1,0.9-0.2,1.8-0.4,2.7l-0.2,1.3l-0.1,1.3c0,0.9-0.1,1.8-0.1,2.7c0,0.9,0,1.7,0,2.6
								c0,1.7,0.1,3.5,0.1,5.2c0.1,7,0.3,14.1,0.5,21.2c0.7,28.5,1.7,57.9,3.2,85.4"/>
						</g>
					</g>
				</g>
			</g>
		</g>
	</g>
	<g>
		<path class="st3" d="M80.1,96.6v67.5h-4.8v-16.8c-2.8,5.7-7,10.2-12.6,13.5s-11.6,4.9-18,4.9c-9.8,0-18.2-3.5-25.2-10.4
			S9,140,9,130.3c0-9.7,3.5-18,10.5-25s15.4-10.4,25.2-10.4c6.4,0,12.5,1.7,18.4,5.1c5.8,3.4,9.9,7.9,12.2,13.5v-17H80.1z
			 M13.8,130.5c0,8.4,3.1,15.7,9.2,21.8c6.1,6.1,13.5,9.2,21.9,9.2s15.7-3.1,21.7-9.2c6-6.1,9-13.4,9-21.9s-3-15.8-9.1-22
			c-6-6.2-13.3-9.3-21.7-9.3s-15.7,3.1-21.8,9.4C16.9,114.8,13.8,122.1,13.8,130.5z"/>
		<path class="st3" d="M123.8,161.2v4.2c-7.1,0-13.2-2.4-18.2-7.1c-5-4.8-7.5-10.8-7.5-18.2V51.6h4.8v88.5c0,6.1,2,11.1,6.1,15.1
			C113.1,159.2,118,161.2,123.8,161.2z"/>
		<path class="st3" d="M159.9,160.8v4.2c-7.1,0-13.1-2.4-18.1-7.1s-7.5-10.8-7.5-18.2V69.4h4.8v27.3h20.7v4.2h-20.7v38.7
			c0,6.1,2,11.1,6.1,15.1C149.2,158.8,154.1,160.8,159.9,160.8z"/>
		<path class="st3" d="M239.3,96.6v67.5h-4.8v-16.8c-2.8,5.7-7,10.2-12.6,13.5s-11.6,4.9-18,4.9c-9.8,0-18.2-3.5-25.2-10.4
			s-10.5-15.3-10.5-25c0-9.7,3.5-18,10.5-25s15.4-10.4,25.2-10.4c6.4,0,12.5,1.7,18.4,5.1c5.9,3.4,9.9,7.9,12.2,13.5v-17H239.3z
			 M173,130.5c0,8.4,3.1,15.7,9.2,21.8c6.1,6.1,13.4,9.2,21.9,9.2s15.7-3.1,21.7-9.2c6-6.1,9-13.4,9-21.9s-3-15.8-9.1-22
			c-6.1-6.2-13.3-9.3-21.7-9.3s-15.7,3.1-21.8,9.4C176.1,114.8,173,122.1,173,130.5z"/>
	</g>
	<g>
		<g>
			<path class="st4" d="M278.6,161.1V48.6h4.8v61.5c2.7-5.5,6.9-9.9,12.7-13.2c5.8-3.3,11.7-4.9,17.9-4.9c9.9,0,18.3,3.5,25.3,10.4
				c7,6.9,10.4,15.3,10.4,25s-3.5,18-10.4,25c-7,6.9-15.4,10.4-25.3,10.4c-6,0-11.9-1.6-17.5-4.9c-5.7-3.2-10-7.6-13-13.1v16.4
				L278.6,161.1L278.6,161.1z M283.1,127.5c0,8.4,3.1,15.7,9.2,21.8c6.1,6.1,13.5,9.2,21.9,9.2c8.5,0,15.7-3.1,21.7-9.2
				s9-13.4,9-21.9s-3-15.8-9.1-22c-6-6.2-13.3-9.3-21.7-9.3c-8.4,0-15.7,3.1-21.8,9.4C286.2,111.8,283.1,119.1,283.1,127.5z"/>
			<path class="st4" d="M314,165.7c-6.5,0-12.9-1.8-19-5.3c-3.2-1.9-6.1-4.1-8.6-6.6v10.2h-10.8V45.6h10.8v55c2.3-2.4,5-4.5,8.2-6.3
				c6.2-3.6,12.7-5.3,19.4-5.3c10.7,0,19.9,3.8,27.4,11.3c7.5,7.5,11.3,16.6,11.3,27.1s-3.8,19.6-11.3,27.1
				C333.9,161.9,324.7,165.7,314,165.7z M314.2,99.1c-7.6,0-14.1,2.8-19.7,8.5c-5.6,5.7-8.4,12.2-8.4,19.9c0,7.6,2.7,14.1,8.4,19.7
				s12.1,8.4,19.8,8.4c7.7,0,14.1-2.7,19.5-8.3c5.5-5.6,8.1-12.1,8.1-19.8s-2.7-14.2-8.2-19.9C328.2,101.9,321.8,99.1,314.2,99.1z"
				/>
		</g>
		<g>
			<path class="st4" d="M394.2,162.9h-1.4c-9.5,0-17.8-3.6-24.8-10.7s-10.6-15.5-10.6-25c0-9.5,3.5-17.7,10.5-24.7
				c7-6.9,15.6-10.4,26-10.4c10.3,0,19.1,4.1,26.5,12.3l-47.1,46.5c6.5,5.2,12.8,7.8,18.8,7.8s11.4-1.4,16.1-4.1s8.7-6.4,11.8-11
				v7.6C412.9,159,404.3,162.9,394.2,162.9z M392.6,96.3c-8,0-15,3.1-21.1,9.2s-9.2,13.2-9.2,21.2s2.6,15,8,21l43.6-43.3
				C407.6,99,400.6,96.3,392.6,96.3z"/>
			<path class="st4" d="M394.2,165.9h-1.4c-10.3,0-19.4-3.9-27-11.6c-7.6-7.7-11.4-16.8-11.4-27.1c0-10.3,3.8-19.3,11.4-26.8
				c7.5-7.5,17-11.3,28.1-11.3c11.1,0,20.8,4.5,28.8,13.3l1.9,2.1l-46.7,46.1c4.9,3.4,9.7,5.1,14.2,5.1c5.4,0,10.4-1.2,14.6-3.7
				c4.3-2.5,8-5.9,10.8-10.1l5.5-8.1v18.6l-0.8,0.9C414.6,161.6,405.1,165.9,394.2,165.9z M392.6,99.3c-7.2,0-13.4,2.7-19,8.3
				c-5.6,5.6-8.4,11.9-8.4,19.1c0,6.2,1.7,11.7,5.2,16.5l38.9-38.6C404.3,101.1,398.8,99.3,392.6,99.3z"/>
		</g>
		<g>
			<path class="st4" d="M498.5,48.6v112.5h-4.8v-16.4c-3,5.5-7.4,9.9-13,13.1c-5.7,3.2-11.5,4.9-17.5,4.9c-9.9,0-18.3-3.5-25.3-10.4
				s-10.4-15.3-10.4-25s3.5-18,10.4-25c7-6.9,15.4-10.4,25.3-10.4c6.2,0,12.2,1.7,17.9,4.9c5.8,3.3,10,7.7,12.7,13.2V48.6
				L498.5,48.6L498.5,48.6z M432.2,127.4c0,8.4,3,15.8,9,21.9s13.2,9.2,21.7,9.2s15.8-3.1,21.9-9.2s9.2-13.4,9.2-21.8
				c0-8.4-3.1-15.7-9.2-22c-6.1-6.2-13.4-9.4-21.8-9.4c-8.4,0-15.6,3.1-21.7,9.3C435.3,111.6,432.2,119,432.2,127.4z"/>
			<path class="st4" d="M463.1,165.7c-10.7,0-19.9-3.8-27.4-11.3s-11.3-16.6-11.3-27.1c0-10.5,3.8-19.6,11.3-27.1
				s16.7-11.3,27.4-11.3c6.7,0,13.2,1.8,19.4,5.3c3.1,1.8,5.9,3.9,8.2,6.3v-55h10.8v118.5h-10.8v-10.2c-2.5,2.6-5.3,4.8-8.6,6.6
				C476.1,164,469.6,165.7,463.1,165.7z M463,99.1c-7.6,0-14,2.8-19.5,8.4c-5.5,5.7-8.2,12.2-8.2,19.9s2.7,14.2,8.1,19.8
				c5.5,5.6,11.9,8.3,19.5,8.3c7.7,0,14.2-2.7,19.8-8.4s8.4-12.1,8.4-19.7s-2.7-14.2-8.4-19.9C477.1,101.9,470.6,99.1,463,99.1z"/>
		</g>
		<g>
			<path class="st4" d="M525.8,96c-2.6,0-4.9,0.8-6.9,2.6c-2,1.7-3,3.8-3,6.3s1.1,4.8,3.4,6.9s5,4,8.1,5.8c3.2,1.8,6.3,3.6,9.5,5.6
				s5.9,4.6,8.2,7.6c2.2,3.1,3.4,6.6,3.4,10.6c0,5.9-2.2,10.9-6.7,15.1c-4.5,4.1-9.8,6.2-16.1,6.2c-4,0-7.7-0.9-11.2-2.6
				c-3.5-1.8-6-4.1-7.6-7v-7.2c3.8,8.4,9.9,12.6,18.3,12.6c5.2,0,9.6-1.6,13.1-4.8s5.3-6.8,5.3-10.7s-1.1-7.3-3.4-10
				c-2.2-2.7-5-5-8.2-6.9c-3.2-1.9-6.4-3.8-9.5-5.6c-3.2-1.8-5.8-4.1-8.1-6.8s-3.4-5.8-3.4-9.3s1.4-6.6,4.3-9
				c2.8-2.4,6.5-3.7,11-3.7s13.8,0.8,17,4.3v6.2C540.1,97.5,530.7,96,525.8,96z"/>
			<path class="st4" d="M525.6,165.7c-4.5,0-8.7-1-12.5-2.9c-4-2-7-4.8-8.9-8.2l-0.4-0.7V132l5.7,12.7c3.3,7.3,8.4,10.8,15.6,10.8
				c4.5,0,8.1-1.3,11.1-4c2.9-2.6,4.3-5.4,4.3-8.5c0-3.3-0.9-5.9-2.7-8.1c-2-2.4-4.5-4.5-7.4-6.2c-3.2-1.9-6.4-3.8-9.5-5.6
				c-3.4-2-6.4-4.5-8.9-7.4c-2.7-3.2-4.1-7-4.1-11.2c0-4.4,1.8-8.2,5.3-11.3c3.4-2.9,7.8-4.4,13-4.4c2.4,0,14.5,0.3,19.2,5.3
				l0.8,0.9v17.2l-5.5-8.2c-2.3-3.4-10.3-5-15.1-5c-1.9,0-3.5,0.6-5,1.8c-1.3,1.1-1.9,2.4-1.9,4c0,1.7,0.8,3.2,2.4,4.7
				c2.1,1.9,4.6,3.7,7.5,5.3c3.2,1.8,6.4,3.7,9.7,5.7c3.5,2.2,6.5,5,9,8.4c2.6,3.6,4,7.8,4,12.4c0,6.7-2.6,12.6-7.6,17.3
				C538.8,163.4,532.7,165.7,525.6,165.7z"/>
		</g>
	</g>
</g>
</svg>
