<?xml version="1.0" encoding="utf-8"?>
<!-- Generator: Adobe Illustrator 26.2.1, SVG Export Plug-In . SVG Version: 6.00 Build 0)  -->
<svg version="1.1" xmlns="http://www.w3.org/2000/svg" xmlns:xlink="http://www.w3.org/1999/xlink" x="0px" y="0px"
	 viewBox="0 0 578.94 214.76" style="enable-background:new 0 0 578.94 214.76;" xml:space="preserve">
<style type="text/css">
	.st0{fill:#C1A69A;}
	.st1{opacity:0.7;}
	.st2{fill:#C8B0A5;}
	.st3{fill:none;stroke:#C8B0A5;stroke-width:0;}
	.st4{fill:#87986A;}
	.st5{fill:#3E4432;}
	.st6{fill:#E9F5DB;}
	.st7{fill:#FFFFFF;stroke:#C1A69A;stroke-miterlimit:10;}
	.st8{fill:#FFFFFF;}
	.st9{fill:#1D1D1D;}
	.st10{fill:none;stroke:#9D9D9D;stroke-width:0.025;}
	.st11{fill:none;stroke:#1D1D1D;stroke-width:0.025;}
	.st12{fill:none;stroke:#1D1D1D;stroke-width:0;}
	.st13{stroke:#000000;stroke-width:6;stroke-miterlimit:10;}
	.st14{fill:none;stroke:#000000;stroke-miterlimit:10;}
	.st15{fill:#BD9D8F;}
	.st16{fill:none;stroke:#BD9D8F;stroke-width:0;}
</style>
<g id="Warstwa_1">
</g>
<g id="Warstwa_3">
</g>
<g id="Warstwa_2">
	<g>
		<g>
			<g>
				<g>
					<g class="st1">
						<g>
							<g>
								<path class="st15" d="M358.26,212.27c7.13,0.17,14.4-0.04,21.22-0.36c14.53-0.67,26.71,1.6,40.89,0.8
									c17.79-1.01,35.28,0.92,53.78,0.25c16.98-0.61,34.22-1.33,51.53-1.79c4.17-0.06,9.07-0.24,13.58-1.3
									c4.56-1.03,8.89-2.9,12.87-5.26c8.03-4.72,14.3-12.08,18.16-20.51c1.76-4.01,2.87-8.27,3.45-12.59
									c0.42-4.5,0.36-8.28,0.48-12.29c0.16-7.94,0.31-15.8,0.46-23.61c0.28-15.62,0.55-31.01,0.82-46.33
									c0.16-7.66,0.31-15.3,0.47-22.94l0.27-11.46c0.01-0.49,0.04-0.92,0.02-1.47l-0.04-1.64c-0.05-1.09-0.02-2.19-0.15-3.28
									c-0.27-2.18-0.5-4.37-1.08-6.51c-0.42-2.18-1.22-4.24-1.92-6.35c-0.43-1.02-0.9-2.03-1.35-3.04
									c-0.43-1.03-0.98-1.99-1.54-2.96l-0.83-1.45l-0.42-0.73l-0.48-0.69l-1.93-2.74c-0.68-0.89-1.44-1.72-2.16-2.58
									c-0.37-0.42-0.72-0.86-1.11-1.27L562.05,19c-0.83-0.76-1.59-1.61-2.48-2.3l-2.66-2.12c-0.9-0.69-1.88-1.27-2.83-1.91
									c-0.48-0.31-0.95-0.63-1.44-0.93l-1.52-0.8c-4.01-2.24-8.43-3.77-12.98-4.74l-2-0.38c-0.67-0.13-1.34-0.26-2.02-0.3
									c-1.36-0.12-2.74-0.23-4.11-0.35c-2.31-0.1-4.63-0.19-6.98-0.29c-4.68-0.17-9.42-0.35-14.21-0.52
									c-9.57-0.32-19.32-0.6-29.13-0.81c-19.61-0.42-39.44-0.61-58.45-0.46c-27.82,0.21-84.08-1-107.93,1.49
									c31.97-0.88,65.63,0,97.02,1.03c-34.45,0.25-69.64,0.5-104.68,0.75l-6.57,0.07l-1.66,0.02l-1.91,0.11
									c-1.27,0.1-2.55,0.09-3.81,0.34c-5.08,0.6-10,2.23-14.54,4.46c-4.53,2.27-8.75,5.19-12.28,8.8
									c-3.54,3.58-6.5,7.7-8.74,12.17c-2.29,4.45-3.67,9.32-4.36,14.21c-0.42,2.44-0.4,4.94-0.46,7.35
									c0.05,2.15,0.1,4.3,0.16,6.45c0.22,8.58,0.46,17.12,0.75,25.58c-0.18-7.93-0.36-15.87-0.55-23.82l-0.11-5.96l-0.03-1.49
									c-0.01-0.5-0.03-0.97,0-1.57l0.12-3.39c0.03-1.13,0.26-2.25,0.39-3.37l0.24-1.68c0.09-0.56,0.25-1.11,0.37-1.66
									c0.28-1.1,0.51-2.21,0.84-3.3l1.13-3.22c1.7-4.21,3.9-8.25,6.75-11.81c2.86-3.54,6.17-6.73,9.92-9.35
									c3.78-2.56,7.9-4.62,12.25-6.06c4.38-1.32,8.93-2.11,13.5-2.17c0.6-0.04,1.04-0.02,1.55-0.03l1.49,0l2.97,0l5.94,0
									c3.96,0.01,7.92,0.02,11.87,0.03c7.91,0.05,15.81,0.1,23.7,0.16c15.77,0.15,31.49,0.39,47.13,0.73
									c31.28,0.67,62.23,1.71,92.65,3.11c15.21,0.7,30.29,1.49,45.21,2.37c3.71,0.33,7.38,0.82,10.81,2.1l1.29,0.42l1.25,0.54
									c0.83,0.37,1.66,0.72,2.47,1.1c1.56,0.91,3.17,1.69,4.58,2.79c5.88,4.02,10.32,9.7,13.05,15.86
									c-3.53-7.02-9.33-13.27-16.8-16.97c-3.7-1.87-7.75-3.22-11.98-3.81c-4.15-0.5-8.79-0.47-13.3-0.64
									c-18.15-0.5-36.78-1.02-55.72-1.54c-37.87-1-76.97-1.89-116.01-2.4c-9.76-0.1-19.51-0.21-29.24-0.31
									c-4.86-0.03-9.72-0.06-14.57-0.09c-2.42-0.01-4.85-0.02-7.27-0.03c-2.5,0.07-5.15,0.13-7.68,0.61
									c-10.21,1.65-19.67,7.14-26.14,15.03c-3.23,3.95-5.73,8.46-7.37,13.23c-1.65,4.77-2.38,9.83-2.34,14.77
									c0.53,37.58,1.71,73.79,3.82,107.31c0.08,1.27,0.17,2.56,0.25,3.86c0.04,0.65,0.09,1.3,0.13,1.95l0.23,1.88l0.24,1.86
									c0.08,0.62,0.27,1.22,0.4,1.83c0.28,1.21,0.54,2.41,1,3.55c1.55,4.61,4.01,8.57,6.54,11.5c-2.35-2.95-4.31-6.32-5.73-9.99
									c-0.32-0.94-0.64-1.87-0.96-2.81c-0.22-0.97-0.45-1.95-0.67-2.92c-0.27-0.98-0.31-1.99-0.46-2.99
									c-0.13-1-0.25-2.02-0.3-3.11c-0.54-8.6-1.02-17.34-1.44-26.2c-0.83-17.72-1.43-35.91-1.82-54.45
									c-0.2-9.27-0.34-18.62-0.44-28.03l-0.04-3.53l0.15-3.68c0-0.62,0.11-1.23,0.19-1.84l0.27-1.83
									c0.13-1.23,0.49-2.42,0.78-3.62c1.25-4.79,3.36-9.37,6.22-13.45c5.67-8.21,14.49-14.22,24.25-16.57l1.83-0.45l1.86-0.27
									c1.24-0.18,2.48-0.39,3.74-0.4c1.24-0.04,2.54-0.15,3.73-0.11l3.61,0.03c4.82,0.05,9.64,0.11,14.47,0.16
									c38.62,0.49,77.44,1.46,115.35,2.57c18.95,0.59,37.67,1.17,56.03,1.74c9.18,0.3,18.26,0.59,27.23,0.88
									c4.49,0.14,8.94,0.29,13.37,0.43c0.55,0.02,1.12,0.03,1.64,0.06l1.48,0.13c0.98,0.11,1.98,0.1,2.94,0.34
									c0.96,0.19,1.93,0.35,2.88,0.56c0.93,0.28,1.87,0.55,2.8,0.83c3.36,1.19,6.56,2.76,9.44,4.81c2.85,2.1,5.39,4.56,7.56,7.31
									c2.1,2.81,3.78,5.89,5.03,9.11c1.22,3.25,1.85,6.67,2.12,10.09l0.05,2.58c0,0.22,0.02,0.41,0.01,0.66l-0.02,0.76l-0.04,1.51
									l-0.16,6.04c-0.1,4.03-0.2,8.06-0.3,12.1c-0.18,8.07-0.36,16.16-0.54,24.25c-0.33,16.19-0.6,32.43-0.79,48.72
									c-0.04,4.07-0.08,8.15-0.12,12.23l-0.05,6.12l-0.01,1.53c-0.01,0.49-0.05,0.84-0.07,1.27c-0.06,0.82-0.07,1.64-0.16,2.45
									c-0.4,3.25-1.29,6.41-2.56,9.42c-1.3,3-3.14,5.75-5.26,8.24c-0.63,0.63-1.19,1.33-1.86,1.91l-2.01,1.76l-2.17,1.55
									c-0.72,0.52-1.53,0.9-2.28,1.38c-3.1,1.71-6.46,2.91-9.93,3.57l-2.62,0.37c-0.88,0.08-1.77,0.07-2.65,0.12
									c-0.78,0.07-2.05,0.02-3.13,0.02l-3.36-0.03c-4.48-0.04-8.95-0.07-13.42-0.11c-36.71-0.28-73.67-0.35-110.35,0.11
									c-32.56,0.4-90.6,0.68-102.99,6.34c10.44,0.2,21.99-0.49,32.03-0.11c-3.8,0.51-8.15,1.14-12.64,1.49
									c4.28-0.02,9.02,0.16,13.01-0.17c-3.3,0.3-6.67,0.66-7.94,1.23c5.15,0.14,12.43-0.69,16.48-1.04
									c2.37-0.21,13.28-1.55,16.39-1.33c-8.09,1.08-18.3,2.1-24.89,3.4c2.79,0.04,5.57-0.04,8.28,0.08
									c-3.37,0.51-9.94,0.72-11.65,1.39c6.95-0.08,13.1-0.46,20.31-0.44c5.84,0.02,11.1,0.11,16.69-0.2
									c-6.67,0.52-15.65,0.88-20.26,1.83c3.09,0.22,6.34,0.09,9.52-0.03c-0.39,0.09-0.61,0.2-0.69,0.31
									c1.41-0.01,3.28,0.12,4.74,0.08c0.04,0.16,0.36,0.3,0.08,0.47c0.04-0.11,0.06-0.22,0.08-0.33"/>
								<path class="st15" d="M348.46,201.47c6.91-0.08,16.72-0.17,23.05,0.14"/>
								<path class="st16" d="M534.13,16.4c0,0-0.33-0.07-0.98-0.1c-0.65-0.05-1.62-0.12-2.88-0.21c-2.68-0.08-6.73-0.14-11.86-0.24
									c-10.29-0.16-25.12-0.39-43.25-0.67c-36.26-0.49-85.74-0.98-138.63-1c-6.61,0-13.27,0.01-19.97,0.02
									c-3.35,0.01-6.71,0.02-10.07,0.03l-5.05,0.02l-2.53,0.01c-0.85-0.01-1.68,0.01-2.5,0.07c-13.18,0.32-25.94,7.91-32.39,19.28
									c-0.89,1.37-1.51,2.88-2.21,4.34c-0.38,0.72-0.57,1.52-0.86,2.27c-0.25,0.77-0.58,1.51-0.77,2.3l-0.57,2.35
									c-0.09,0.39-0.21,0.78-0.27,1.18l-0.16,1.2l-0.33,2.39c-0.05,0.8-0.06,1.6-0.1,2.4c-0.09,1.57-0.03,3.26-0.01,4.92
									c0.03,1.66,0.05,3.32,0.08,4.97c0.06,3.31,0.11,6.6,0.17,9.88c0.24,13.12,0.53,25.99,0.88,38.46
									c0.35,12.47,0.76,24.54,1.24,36.05c0.26,5.76,0.52,11.38,0.77,16.84c0.07,1.37,0.14,2.72,0.21,4.07
									c0.13,1.18,0.26,2.35,0.39,3.5c0.21,1.14,0.49,2.25,0.72,3.36c0.3,1.09,0.7,2.14,1.03,3.19c1.56,4.14,3.88,7.75,6.59,10.67
									c2.71,2.94,5.81,5.19,8.95,6.8c6.35,3.22,12.76,3.6,17.83,2.74"/>
							</g>
							<path class="st16" d="M369.2,9.91c0,0-8.71-0.15-23.49-0.23c-7.39-0.01-16.3-0.03-26.4-0.05c-5.05,0.02-10.4,0.04-16,0.06
								c-2.83,0.04-5.55-0.04-8.83,0.21c-3.17,0.21-6.36,0.87-9.52,1.79c-6.31,1.91-12.32,5.51-17.33,10.33
								c-5.06,4.8-8.86,11.1-11.07,17.98c-0.33,0.85-0.49,1.74-0.71,2.62c-0.2,0.89-0.44,1.77-0.59,2.66
								c-0.12,0.9-0.24,1.81-0.35,2.72l-0.17,1.36l-0.04,1.37c-0.02,0.91-0.05,1.83-0.07,2.75c0,0.89,0.04,1.74,0.06,2.61
								c0.05,1.74,0.1,3.48,0.14,5.23c0.23,6.99,0.45,14.08,0.68,21.22c0.52,14.27,1.15,28.75,1.94,43.1
								c0.39,7.17,0.83,14.32,1.3,21.39c0.25,3.53,0.5,7.05,0.74,10.54c0.13,1.75,0.26,3.49,0.39,5.22l0.2,2.6
								c0.08,0.84,0.11,1.77,0.24,2.53"/>
						</g>
					</g>
				</g>
			</g>
		</g>
	</g>
	<g>
		<path d="M80.14,89.59v67.5h-4.8v-16.8c-2.8,5.7-7,10.2-12.6,13.5c-5.6,3.3-11.6,4.95-18,4.95c-9.8,0-18.2-3.47-25.2-10.42
			c-7-6.95-10.5-15.27-10.5-24.98c0-9.7,3.5-18.02,10.5-24.97c7-6.95,15.4-10.42,25.2-10.42c6.4,0,12.52,1.7,18.38,5.1
			c5.85,3.4,9.92,7.9,12.22,13.5V89.59H80.14z M13.84,123.49c0,8.4,3.08,15.67,9.23,21.83c6.15,6.15,13.45,9.22,21.9,9.22
			c8.45,0,15.67-3.08,21.67-9.22c6-6.15,9-13.45,9-21.9c0-8.45-3.03-15.77-9.07-21.97c-6.05-6.2-13.28-9.3-21.68-9.3
			c-8.4,0-15.67,3.13-21.82,9.38C16.92,107.77,13.84,115.09,13.84,123.49z"/>
		<path d="M123.79,154.24v4.2c-7.1,0-13.15-2.38-18.15-7.12c-5-4.75-7.5-10.82-7.5-18.23v-88.5h4.8v88.5
			c0,6.1,2.03,11.15,6.08,15.15C113.06,152.24,117.99,154.24,123.79,154.24z"/>
		<path d="M159.94,153.79v4.2c-7.1,0-13.15-2.37-18.15-7.12c-5-4.75-7.5-10.82-7.5-18.23v-70.2h4.8v27.3h20.7v4.2h-20.7v38.7
			c0,6.1,2.03,11.15,6.08,15.15C149.21,151.79,154.14,153.79,159.94,153.79z"/>
		<path d="M239.29,89.59v67.5h-4.8v-16.8c-2.8,5.7-7,10.2-12.6,13.5c-5.6,3.3-11.6,4.95-18,4.95c-9.8,0-18.2-3.47-25.2-10.42
			c-7-6.95-10.5-15.27-10.5-24.98c0-9.7,3.5-18.02,10.5-24.97c7-6.95,15.4-10.42,25.2-10.42c6.4,0,12.52,1.7,18.38,5.1
			c5.85,3.4,9.92,7.9,12.22,13.5V89.59H239.29z M172.99,123.49c0,8.4,3.08,15.67,9.23,21.83c6.15,6.15,13.45,9.22,21.9,9.22
			c8.45,0,15.67-3.08,21.67-9.22c6-6.15,9-13.45,9-21.9c0-8.45-3.03-15.77-9.07-21.97c-6.05-6.2-13.28-9.3-21.68-9.3
			c-8.4,0-15.67,3.13-21.82,9.38C176.06,107.77,172.99,115.09,172.99,123.49z"/>
	</g>
	<g>
		<g>
			<path class="st0" d="M278.61,154.09V41.59h4.8v61.5c2.7-5.5,6.92-9.9,12.67-13.2c5.75-3.3,11.72-4.95,17.93-4.95
				c9.9,0,18.32,3.48,25.27,10.42c6.95,6.95,10.42,15.28,10.42,24.98c0,9.7-3.48,18.03-10.42,24.97
				c-6.95,6.95-15.38,10.42-25.27,10.42c-6,0-11.85-1.63-17.55-4.88c-5.7-3.25-10.05-7.62-13.05-13.12v16.35H278.61z M283.11,120.49
				c0,8.4,3.08,15.68,9.22,21.83c6.15,6.15,13.45,9.23,21.9,9.23c8.45,0,15.67-3.08,21.67-9.23c6-6.15,9-13.45,9-21.9
				c0-8.45-3.03-15.77-9.08-21.98c-6.05-6.2-13.27-9.3-21.67-9.3c-8.4,0-15.67,3.13-21.83,9.38
				C286.18,104.77,283.11,112.09,283.11,120.49z"/>
			<path class="st0" d="M314.01,158.74c-6.5,0-12.9-1.77-19.04-5.27c-3.25-1.85-6.11-4.06-8.56-6.61v10.23h-10.8V38.59h10.8v55.04
				c2.32-2.42,5.05-4.54,8.18-6.34c6.18-3.55,12.72-5.35,19.42-5.35c10.68,0,19.89,3.8,27.4,11.3c7.5,7.5,11.3,16.62,11.3,27.1
				c0,10.48-3.8,19.6-11.3,27.1C333.9,154.94,324.69,158.74,314.01,158.74z M314.16,92.14c-7.63,0-14.07,2.77-19.69,8.48
				c-5.63,5.72-8.36,12.22-8.36,19.87c0,7.64,2.73,14.09,8.35,19.71c5.62,5.62,12.09,8.35,19.78,8.35c7.68,0,14.07-2.72,19.53-8.32
				c5.48-5.62,8.15-12.1,8.15-19.81c0-7.71-2.69-14.21-8.22-19.88C328.17,94.89,321.78,92.14,314.16,92.14z"/>
		</g>
		<g>
			<path class="st0" d="M394.2,155.89h-1.35c-9.5,0-17.78-3.57-24.83-10.72c-7.05-7.15-10.58-15.47-10.58-24.98
				c0-9.5,3.5-17.72,10.5-24.68c7-6.95,15.65-10.42,25.95-10.42c10.3,0,19.15,4.1,26.55,12.3l-47.1,46.5
				c6.5,5.2,12.75,7.8,18.75,7.8s11.37-1.37,16.12-4.12c4.75-2.75,8.67-6.42,11.77-11.02v7.65
				C412.9,151.99,404.3,155.89,394.2,155.89z M392.63,89.29c-7.95,0-15,3.07-21.15,9.22c-6.15,6.15-9.23,13.23-9.23,21.23
				c0,8,2.65,15,7.95,21l43.65-43.35C407.65,91.99,400.58,89.29,392.63,89.29z"/>
			<path class="st0" d="M394.2,158.89h-1.35c-10.29,0-19.36-3.91-26.96-11.62c-7.59-7.7-11.44-16.81-11.44-27.08
				c0-10.28,3.83-19.3,11.39-26.8c7.55-7.5,16.99-11.3,28.06-11.3c11.13,0,20.82,4.47,28.78,13.29l1.92,2.13l-46.66,46.06
				c4.94,3.4,9.69,5.12,14.16,5.12c5.44,0,10.36-1.25,14.62-3.72c4.33-2.51,7.96-5.91,10.79-10.11l5.49-8.14v18.63l-0.78,0.86
				C414.56,154.62,405.13,158.89,394.2,158.89z M392.63,92.29c-7.19,0-13.41,2.73-19.03,8.35c-5.62,5.62-8.35,11.87-8.35,19.1
				c0,6.23,1.71,11.66,5.2,16.52l38.89-38.62C404.33,94.05,398.83,92.29,392.63,92.29z"/>
		</g>
		<g>
			<path class="st0" d="M498.55,41.59v112.5h-4.8v-16.35c-3,5.5-7.35,9.88-13.05,13.12c-5.7,3.25-11.55,4.88-17.55,4.88
				c-9.9,0-18.33-3.47-25.28-10.42c-6.95-6.95-10.42-15.27-10.42-24.97c0-9.7,3.47-18.02,10.42-24.98
				c6.95-6.95,15.38-10.42,25.28-10.42c6.2,0,12.17,1.65,17.92,4.95c5.75,3.3,9.97,7.7,12.67,13.2v-61.5H498.55z M432.25,120.42
				c0,8.45,3,15.75,9,21.9c6,6.15,13.22,9.23,21.67,9.23c8.45,0,15.75-3.08,21.9-9.23c6.15-6.15,9.22-13.42,9.22-21.83
				c0-8.4-3.07-15.72-9.22-21.98c-6.15-6.25-13.42-9.38-21.83-9.38c-8.4,0-15.63,3.1-21.67,9.3
				C435.28,104.64,432.25,111.97,432.25,120.42z"/>
			<path class="st0" d="M463.15,158.74c-10.68,0-19.9-3.8-27.4-11.3c-7.5-7.5-11.3-16.61-11.3-27.1c0-10.48,3.8-19.6,11.3-27.1
				c7.5-7.5,16.72-11.3,27.4-11.3c6.7,0,13.23,1.8,19.42,5.35c3.13,1.8,5.86,3.92,8.18,6.34V38.59h10.8v118.5h-10.8v-10.23
				c-2.46,2.55-5.32,4.76-8.56,6.61C476.06,156.97,469.65,158.74,463.15,158.74z M463,92.14c-7.63,0-14.01,2.75-19.53,8.4
				c-5.53,5.67-8.22,12.17-8.22,19.88s2.67,14.19,8.15,19.81c5.46,5.6,11.85,8.32,19.53,8.32c7.69,0,14.16-2.73,19.78-8.35
				s8.35-12.06,8.35-19.71c0-7.65-2.74-14.15-8.36-19.87C477.07,94.91,470.63,92.14,463,92.14z"/>
		</g>
		<g>
			<path class="st0" d="M525.75,88.99c-2.6,0-4.9,0.85-6.9,2.55c-2,1.7-3,3.8-3,6.3c0,2.5,1.12,4.8,3.38,6.9s4.95,4.03,8.1,5.77
				c3.15,1.75,6.32,3.63,9.52,5.63c3.2,2,5.92,4.55,8.17,7.65c2.25,3.1,3.38,6.65,3.38,10.65c0,5.9-2.23,10.93-6.67,15.08
				c-4.45,4.15-9.83,6.22-16.12,6.22c-4,0-7.72-0.88-11.17-2.62c-3.45-1.75-5.98-4.07-7.58-6.97v-7.2c3.8,8.4,9.9,12.6,18.3,12.6
				c5.2,0,9.57-1.6,13.12-4.8c3.55-3.2,5.33-6.77,5.33-10.72c0-3.95-1.12-7.28-3.38-9.97c-2.25-2.7-4.98-5-8.17-6.9
				c-3.2-1.9-6.38-3.77-9.53-5.62c-3.15-1.85-5.85-4.1-8.1-6.75c-2.25-2.65-3.38-5.75-3.38-9.3c0-3.55,1.42-6.55,4.28-9
				c2.85-2.45,6.52-3.67,11.02-3.67s13.77,0.85,16.97,4.35v6.15C540.12,90.49,530.65,88.99,525.75,88.99z"/>
			<path class="st0" d="M525.6,158.74c-4.46,0-8.67-0.99-12.53-2.95c-3.98-2.02-6.96-4.78-8.85-8.2l-0.37-0.68v-21.88l5.73,12.67
				c3.3,7.29,8.39,10.84,15.57,10.84c4.47,0,8.11-1.32,11.12-4.03c2.92-2.63,4.33-5.41,4.33-8.5c0-3.26-0.88-5.89-2.68-8.05
				c-2.02-2.42-4.51-4.52-7.4-6.24c-3.2-1.9-6.37-3.77-9.51-5.62c-3.42-2.01-6.41-4.5-8.87-7.39c-2.71-3.19-4.09-6.97-4.09-11.24
				c0-4.45,1.79-8.24,5.32-11.27c3.4-2.92,7.76-4.4,12.98-4.4c2.39,0,14.55,0.26,19.19,5.33l0.79,0.86v17.22l-5.5-8.24
				c-2.26-3.39-10.33-4.96-15.08-4.96c-1.88,0-3.5,0.6-4.96,1.84c-1.33,1.13-1.94,2.4-1.94,4.01c0,1.65,0.79,3.19,2.42,4.71
				c2.07,1.93,4.59,3.73,7.51,5.35c3.16,1.76,6.41,3.67,9.66,5.7c3.51,2.2,6.55,5.04,9.01,8.43c2.62,3.61,3.95,7.79,3.95,12.41
				c0,6.74-2.57,12.55-7.63,17.27C538.77,156.37,532.66,158.74,525.6,158.74z"/>
		</g>
	</g>
</g>
</svg>
